<?xml version="1.0" encoding="UTF-8" standalone="no"?>
<svg
   xmlns:dc="http://purl.org/dc/elements/1.1/"
   xmlns:cc="http://creativecommons.org/ns#"
   xmlns:rdf="http://www.w3.org/1999/02/22-rdf-syntax-ns#"
   xmlns:svg="http://www.w3.org/2000/svg"
   xmlns="http://www.w3.org/2000/svg"
   xmlns:sodipodi="http://sodipodi.sourceforge.net/DTD/sodipodi-0.dtd"
   xmlns:inkscape="http://www.inkscape.org/namespaces/inkscape"
   width="24000"
   height="200"
   viewBox="0 0 24000 200"
   version="1.1"
   id="svg4"
   sodipodi:docname="impression-mask-steps-small.svg"
   inkscape:version="0.92.2 (5c3e80d, 2017-08-06)">
  <metadata
     id="metadata10">
    <rdf:RDF>
      <cc:Work
         rdf:about="">
        <dc:format>image/svg+xml</dc:format>
        <dc:type
           rdf:resource="http://purl.org/dc/dcmitype/StillImage" />
      </cc:Work>
    </rdf:RDF>
  </metadata>
  <defs
     id="defs8" />
  <sodipodi:namedview
     pagecolor="#ffffff"
     bordercolor="#666666"
     borderopacity="1"
     objecttolerance="10"
     gridtolerance="10"
     guidetolerance="10"
     inkscape:pageopacity="0"
     inkscape:pageshadow="2"
     inkscape:window-width="1366"
     inkscape:window-height="705"
     id="namedview6"
     showgrid="false"
     inkscape:zoom="0.012845773"
     inkscape:cx="34111.527"
     inkscape:cy="-9862.6554"
     inkscape:window-x="-8"
     inkscape:window-y="-8"
     inkscape:window-maximized="1"
     inkscape:current-layer="svg4" />
  <path
     style="opacity:1;fill:#000000;fill-opacity:1;stroke:none;stroke-width:8.4838686;stroke-miterlimit:4;stroke-dasharray:none;stroke-opacity:1;paint-order:markers fill stroke"
     d="M 0 0 L 0 200 L 1000 200 L 1000 0 L 0 0 z M 499.77539 99.5 C 499.86239 99.5 499.9455 99.544031 500 99.613281 C 500.0545 99.544081 500.13761 99.5 500.22461 99.5 C 500.37861 99.5 500.5 99.630438 500.5 99.798828 C 500.5 100.00428 500.32977 100.17324 500.07227 100.42773 L 500 100.5 L 499.92773 100.42773 C 499.67023 100.17324 499.5 100.00428 499.5 99.798828 C 499.5 99.630438 499.62139 99.5 499.77539 99.5 z "
     id="rect4508" />
  <path
     style="opacity:1;fill:#000000;fill-opacity:1;stroke:none;stroke-width:8.4838686;stroke-miterlimit:4;stroke-dasharray:none;stroke-opacity:1;paint-order:markers fill stroke"
     d="M 1000 0 L 1000 200 L 2000 200 L 2000 0 L 1000 0 z M 1488.75 75 C 1493.1 75 1497.275 77.205348 1500 80.667969 C 1502.7 77.207848 1506.9 75 1511.25 75 C 1518.95 75 1525 81.566533 1525 89.986328 C 1525 100.25943 1516.5 108.67936 1503.625 121.4043 L 1499.9746 125 L 1496.375 121.4043 C 1483.5 108.67936 1475 100.25943 1475 89.986328 C 1475 81.566533 1481.05 75 1488.75 75 z "
     id="rect4532" />
  <path
     style="opacity:1;fill:#000000;fill-opacity:1;stroke:none;stroke-width:8.4838686;stroke-miterlimit:4;stroke-dasharray:none;stroke-opacity:1;paint-order:markers fill stroke"
     d="M 2000 0 L 2000 200 L 3000 200 L 3000 0 L 2000 0 z M 2465.125 22.5 C 2478.61 22.5 2491.5525 29.336186 2500 40.070312 C 2508.37 29.343938 2521.39 22.5 2534.875 22.5 C 2558.745 22.5 2577.5 42.857621 2577.5 68.958984 C 2577.5 100.80563 2551.1508 126.90814 2511.2383 166.35547 L 2499.9219 177.5 L 2488.7617 166.35547 C 2448.8492 126.90814 2422.5 100.80563 2422.5 68.958984 C 2422.5 42.857621 2441.255 22.5 2465.125 22.5 z "
     id="rect4536" />
  <path
     style="opacity:1;fill:#000000;fill-opacity:1;stroke:none;stroke-width:8.4838686;stroke-miterlimit:4;stroke-dasharray:none;stroke-opacity:1;paint-order:markers fill stroke"
     d="M 3000 0 L 3000 200 L 3499.9004 200 L 3485.5 185.61914 C 3434 134.71935 3400 101.03971 3400 59.947266 C 3400 26.268087 3424.2 9.4739031e-015 3455 0 L 3000 0 z M 3455 0 C 3472.4 0 3489.1 8.8194379 3500 22.669922 C 3510.8 8.8294379 3527.6 -2.3684758e-015 3545 0 L 3455 0 z M 3545 0 C 3575.8 0 3600 26.268087 3600 59.947266 C 3600 101.03971 3566 134.71935 3514.5 185.61914 L 3499.9004 200 L 4000 200 L 4000 0 L 3545 0 z "
     id="rect4540" />
  <path
     style="opacity:1;fill:#000000;fill-opacity:1;stroke:none;stroke-width:8.4838686;stroke-miterlimit:4;stroke-dasharray:none;stroke-opacity:1;paint-order:markers fill stroke"
     d="M 4000 0 L 4000 200 L 4474.7773 200 C 4414.4307 140.28035 4375 99.371363 4375 49.935547 C 4375 30.558063 4381.4195 13.153829 4392.0918 0 L 4000 0 z M 4497.209 0 C 4498.1687 1.0856101 4499.1015 2.1962408 4500 3.3378906 C 4500.8907 2.1964891 4501.8155 1.0855114 4502.7695 0 L 4497.209 0 z M 4607.9082 0 C 4618.5805 13.153829 4625 30.558063 4625 49.935547 C 4625 99.371363 4585.5693 140.28035 4525.2227 200 L 5000 200 L 5000 0 L 4607.9082 0 z "
     id="rect4544" />
  <path
     style="opacity:1;fill:#000000;fill-opacity:1;stroke:none;stroke-width:8.4838686;stroke-miterlimit:4;stroke-dasharray:none;stroke-opacity:1;paint-order:markers fill stroke"
     d="M 5000 0 L 5000 200 L 5444.6582 200 C 5383.5995 138.48241 5345 92.374457 5345 37.919922 C 5345 24.328861 5347.5467 11.518116 5352.1504 0 L 5000 0 z M 5647.8496 0 C 5652.4533 11.518116 5655 24.328861 5655 37.919922 C 5655 92.374457 5616.4005 138.48241 5555.3418 200 L 6000 200 L 6000 0 L 5647.8496 0 z "
     id="rect4548" />
  <path
     style="opacity:1;fill:#000000;fill-opacity:1;stroke:none;stroke-width:8.4838686;stroke-miterlimit:4;stroke-dasharray:none;stroke-opacity:1;paint-order:markers fill stroke"
     d="M 6000 0 L 6000 200 L 6419.8691 200 C 6358.1778 136.40657 6320 86.310045 6320 27.90625 C 6320 18.216424 6321.1184 8.8696515 6323.2148 0 L 6000 0 z M 6676.7852 0 C 6678.8816 8.8696515 6680 18.216424 6680 27.90625 C 6680 86.310045 6641.8222 136.40657 6580.1309 200 L 7000 200 L 7000 0 L 6676.7852 0 z "
     id="rect4552" />
  <path
     style="opacity:1;fill:#000000;fill-opacity:1;stroke:none;stroke-width:8.4838686;stroke-miterlimit:4;stroke-dasharray:none;stroke-opacity:1;paint-order:markers fill stroke"
     d="M 7000 0 L 7000 200 L 7395.4336 200 C 7333.0393 134.03316 7295 80.100658 7295 17.894531 C 7295 11.801794 7295.3947 5.829571 7296.1426 0 L 7000 0 z M 7703.8594 0 C 7704.6072 5.8295442 7705 11.801824 7705 17.894531 C 7705 80.100464 7666.9623 134.03344 7604.5684 200 L 8000 200 L 8000 0 L 7703.8594 0 z "
     id="rect4556" />
  <path
     style="opacity:1;fill:#000000;fill-opacity:1;stroke:none;stroke-width:8.4838686;stroke-miterlimit:4;stroke-dasharray:none;stroke-opacity:1;paint-order:markers fill stroke"
     d="M 8000 0 L 8000 200 L 8376.0957 200 C 8313.0588 131.97559 8275 75.066153 8275 9.8828125 C 8275 6.5541246 8275.1116 3.260748 8275.3184 0 L 8000 0 z M 8724.6816 0 C 8724.8884 3.260748 8725 6.5541246 8725 9.8828125 C 8725 75.066153 8686.9412 131.97559 8623.9043 200 L 9000 200 L 9000 0 L 8724.6816 0 z "
     id="rect4560" />
  <path
     style="opacity:1;fill:#000000;fill-opacity:1;stroke:none;stroke-width:8.4838686;stroke-miterlimit:4;stroke-dasharray:none;stroke-opacity:1;paint-order:markers fill stroke"
     d="M 9000 0 L 9000 200 L 9352.1602 200 C 9288.2608 129.30516 9250.0497 68.795935 9250.002 0 L 9000 0 z M 9749.998 0 C 9749.9503 68.795794 9711.741 129.30534 9647.8418 200 L 10000 200 L 10000 0 L 9749.998 0 z "
     id="rect4564" />
  <path
     style="opacity:1;fill:#000000;fill-opacity:1;stroke:none;stroke-width:8.4838686;stroke-miterlimit:4;stroke-dasharray:none;stroke-opacity:1;paint-order:markers fill stroke"
     d="M 10000 0 L 10000 200 L 10337.293 200 C 10267.086 129.30518 10225.054 68.795915 10225.002 0 L 10000 0 z M 10774.998 0 C 10774.946 68.795803 10732.915 129.30533 10662.543 200 L 11000 200 L 11000 0 L 10774.998 0 z "
     id="rect4568" />
  <path
     style="opacity:1;fill:#000000;fill-opacity:1;stroke:none;stroke-width:8.4838686;stroke-miterlimit:4;stroke-dasharray:none;stroke-opacity:1;paint-order:markers fill stroke"
     d="M 11000 0 L 11000 200 L 11295.438 200 C 11235.99 130.48387 11198.506 67.923228 11191.285 0 L 11000 0 z M 11808.715 0 C 11801.493 67.923018 11763.998 130.48413 11704.426 200 L 12000 200 L 12000 0 L 11808.715 0 z "
     id="rect4572" />
  <path
     style="opacity:1;fill:#000000;fill-opacity:1;stroke:none;stroke-width:8.4838686;stroke-miterlimit:4;stroke-dasharray:none;stroke-opacity:1;paint-order:markers fill stroke"
     d="M 12000 0 L 12000 200 L 12272.117 200 C 12214.135 130.82094 12176.843 67.689511 12167.391 0 L 12000 0 z M 12832.609 0 C 12823.154 67.689482 12785.846 130.82097 12727.746 200 L 13000 200 L 13000 0 L 12832.609 0 z "
     id="rect4576" />
  <path
     style="opacity:1;fill:#000000;fill-opacity:1;stroke:none;stroke-width:8.4838686;stroke-miterlimit:4;stroke-dasharray:none;stroke-opacity:1;paint-order:markers fill stroke"
     d="M 14000 0 L 14000 200 L 14225.814 200 C 14170.289 131.32488 14133.277 67.358649 14120.236 0 L 14000 0 z M 14879.764 0 C 14866.719 67.358647 14829.684 131.3249 14774.053 200 L 15000 200 L 15000 0 L 14879.764 0 z "
     id="rect4580" />
  <path
     style="opacity:1;fill:#000000;fill-opacity:1;stroke:none;stroke-width:8.4838686;stroke-miterlimit:4;stroke-dasharray:none;stroke-opacity:1;paint-order:markers fill stroke"
     d="M 13000 0 L 13000 200 L 13248.916 200 C 13192.232 131.0958 13155.093 67.50614 13143.721 0 L 13000 0 z M 13856.279 0 C 13844.903 67.506013 13807.746 131.09597 13750.951 200 L 14000 200 L 14000 0 L 13856.279 0 z "
     id="rect4584" />
  <path
     style="opacity:1;fill:#000000;fill-opacity:1;stroke:none;stroke-width:8.4838686;stroke-miterlimit:4;stroke-dasharray:none;stroke-opacity:1;paint-order:markers fill stroke"
     d="M 15000 0 L 15000 200 L 15198.207 200 C 15143.915 131.55187 15107.028 67.21843 15092.256 0 L 15000 0 z M 15907.744 0 C 15892.966 67.21872 15856.053 131.55155 15801.66 200 L 16000 200 L 16000 0 L 15907.744 0 z "
     id="rect4588" />
  <path
     style="opacity:1;fill:#000000;fill-opacity:1;stroke:none;stroke-width:8.4838686;stroke-miterlimit:4;stroke-dasharray:none;stroke-opacity:1;paint-order:markers fill stroke"
     d="M 16000 0 L 16000 200 L 16175.273 200 C 16121.896 131.70821 16085.084 67.126435 16069.053 0 L 16000 0 z M 16930.945 0 C 16914.907 67.126541 16878.068 131.70809 16824.596 200 L 17000 200 L 17000 0 L 16930.945 0 z "
     id="rect4592" />
  <path
     style="opacity:1;fill:#000000;fill-opacity:1;stroke:none;stroke-width:8.4838686;stroke-miterlimit:4;stroke-dasharray:none;stroke-opacity:1;paint-order:markers fill stroke"
     d="M 17000 0 L 17000 200 L 17152.424 200 C 17099.878 131.84444 17063.124 67.048486 17045.971 0 L 17000 0 z M 17954.025 0 C 17936.865 67.048273 17900.085 131.84467 17847.447 200 L 18000 200 L 18000 0 L 17954.025 0 z "
     id="rect4596" />
  <path
     style="opacity:1;fill:#000000;fill-opacity:1;stroke:none;stroke-width:8.4838686;stroke-miterlimit:4;stroke-dasharray:none;stroke-opacity:1;paint-order:markers fill stroke"
     d="M 18000 0 L 18000 200 L 18129.619 200 C 18077.83 131.96238 18041.132 66.983439 18022.975 0 L 18000 0 z M 18977.021 0 C 18958.855 66.983479 18922.128 131.96233 18870.25 200 L 19000 200 L 19000 0 L 18977.021 0 z "
     id="rect4600" />
  <path
     style="opacity:1;fill:#000000;fill-opacity:1;stroke:none;stroke-width:8.4838686;stroke-miterlimit:4;stroke-dasharray:none;stroke-opacity:1;paint-order:markers fill stroke"
     d="M 19000 0 L 19000 200 L 19106.854 200 C 19055.756 132.06519 19019.115 66.928852 19000.053 0 L 19000 0 z M 19999.941 0 C 19980.869 66.928848 19944.199 132.06519 19893.016 200 L 20000 200 L 20000 0 L 19999.941 0 z "
     id="rect4604" />
  <path
     style="opacity:1;fill:#000000;fill-opacity:1;stroke:none;stroke-width:8.4838686;stroke-miterlimit:4;stroke-dasharray:none;stroke-opacity:1;paint-order:markers fill stroke"
     d="M 21000 27.826172 C 20979.212 85.093886 20945.956 141.54374 20902.113 200 L 21000 200 L 21000 27.826172 z M 20000 27.853516 L 20000 200 L 20097.754 200 C 20053.992 141.55312 20020.774 85.111782 20000 27.853516 z "
     id="rect4608" />
  <path
     style="opacity:1;fill:#000000;fill-opacity:1;stroke:none;stroke-width:8.4838686;stroke-miterlimit:4;stroke-dasharray:none;stroke-opacity:1;paint-order:markers fill stroke"
     d="M 22000 79.71875 C 21980.265 119.4951 21954.99 159.30151 21924.797 200 L 22000 200 L 22000 79.71875 z M 21000 79.783203 L 21000 200 L 21075.072 200 C 21044.945 159.32346 21019.711 119.53813 21000 79.783203 z "
     id="rect4612" />
  <path
     style="opacity:1;fill:#000000;fill-opacity:1;stroke:none;stroke-width:8.4838686;stroke-miterlimit:4;stroke-dasharray:none;stroke-opacity:1;paint-order:markers fill stroke"
     d="M 23000 120.7168 C 22984.635 146.93762 22967.091 173.2898 22947.477 200 L 23000 200 L 23000 120.7168 z M 22000 120.81641 L 22000 200 L 22052.393 200 C 22032.835 173.32364 22015.332 147.00435 22000 120.81641 z "
     id="rect4616" />
  <path
     style="opacity:1;fill:#000000;fill-opacity:1;stroke:none;stroke-width:8.4838686;stroke-miterlimit:4;stroke-dasharray:none;stroke-opacity:1;paint-order:markers fill stroke"
     d="M 24000 183.3457 C 23996.151 188.88329 23992.195 194.4369 23988.178 200 L 24000 200 L 24000 183.3457 z M 23000 183.51562 L 23000 200 L 23011.689 200 C 23007.72 194.49395 23003.806 188.99667 23000 183.51562 z "
     id="rect4620" />
</svg>
